<svg width="27" height="16" viewBox="0 0 27 16" fill="none" xmlns="http://www.w3.org/2000/svg">
<path d="M8.77841 5C8.74053 4.52652 8.56297 4.1572 8.24574 3.89205C7.93324 3.62689 7.45739 3.49432 6.81818 3.49432C6.41098 3.49432 6.07718 3.54403 5.81676 3.64347C5.56108 3.73816 5.37169 3.86837 5.24858 4.03409C5.12547 4.19981 5.06155 4.3892 5.05682 4.60227C5.04735 4.77746 5.07813 4.93608 5.14915 5.07812C5.22491 5.21544 5.34328 5.34091 5.50426 5.45455C5.66525 5.56345 5.87121 5.66288 6.12216 5.75284C6.37311 5.8428 6.6714 5.9233 7.01705 5.99432L8.21023 6.25C9.01515 6.42045 9.70407 6.64536 10.277 6.92472C10.8499 7.20407 11.3187 7.53314 11.6832 7.91193C12.0478 8.28598 12.3153 8.70739 12.4858 9.17614C12.661 9.64489 12.7509 10.1562 12.7557 10.7102C12.7509 11.6667 12.5118 12.4763 12.0384 13.1392C11.5649 13.8021 10.8878 14.3063 10.0071 14.652C9.13116 14.9976 8.07765 15.1705 6.84659 15.1705C5.58239 15.1705 4.47917 14.9834 3.53693 14.6094C2.59943 14.2353 1.87027 13.66 1.34943 12.8835C0.833333 12.1023 0.572917 11.1032 0.568182 9.88636H4.31818C4.34186 10.3314 4.45313 10.7055 4.65199 11.0085C4.85085 11.3116 5.13021 11.5412 5.49006 11.6974C5.85464 11.8537 6.28788 11.9318 6.78977 11.9318C7.21117 11.9318 7.56392 11.8797 7.84801 11.7756C8.1321 11.6714 8.34754 11.527 8.49432 11.3423C8.6411 11.1577 8.71686 10.947 8.72159 10.7102C8.71686 10.4877 8.64347 10.2936 8.50142 10.1278C8.36411 9.95739 8.13684 9.80587 7.8196 9.6733C7.50237 9.53598 7.07386 9.40814 6.53409 9.28977L5.08523 8.97727C3.79735 8.69792 2.78172 8.23153 2.03835 7.57812C1.29972 6.91998 0.932765 6.02273 0.9375 4.88636C0.932765 3.96307 1.17898 3.15578 1.67614 2.46449C2.17803 1.76847 2.87169 1.22633 3.7571 0.838068C4.64725 0.44981 5.66761 0.255681 6.81818 0.255681C7.99242 0.255681 9.00805 0.452178 9.86506 0.84517C10.7221 1.23816 11.3826 1.79214 11.8466 2.5071C12.3153 3.21733 12.5521 4.0483 12.5568 5H8.77841Z" fill="#E67A4D"/>
<path d="M26.843 0.454545V15H23.5476L18.2919 7.35795H18.2067V15H14.2578V0.454545H17.6101L22.7805 8.06818H22.8942V0.454545H26.843Z" fill="#312D35"/>
</svg>
