<svg width="125" height="29" viewBox="0 0 125 29" fill="none" xmlns="http://www.w3.org/2000/svg">
<path d="M10.5341 11C10.4886 10.4318 10.2756 9.98864 9.89489 9.67045C9.51989 9.35227 8.94886 9.19318 8.18182 9.19318C7.69318 9.19318 7.29261 9.25284 6.98011 9.37216C6.6733 9.4858 6.44602 9.64205 6.2983 9.84091C6.15057 10.0398 6.07386 10.267 6.06818 10.5227C6.05682 10.733 6.09375 10.9233 6.17898 11.0938C6.26989 11.2585 6.41193 11.4091 6.60511 11.5455C6.7983 11.6761 7.04545 11.7955 7.34659 11.9034C7.64773 12.0114 8.00568 12.108 8.42045 12.1932L9.85227 12.5C10.8182 12.7045 11.6449 12.9744 12.3324 13.3097C13.0199 13.6449 13.5824 14.0398 14.0199 14.4943C14.4574 14.9432 14.7784 15.4489 14.983 16.0114C15.1932 16.5739 15.3011 17.1875 15.3068 17.8523C15.3011 19 15.0142 19.9716 14.446 20.767C13.8778 21.5625 13.0653 22.1676 12.0085 22.5824C10.9574 22.9972 9.69318 23.2045 8.21591 23.2045C6.69886 23.2045 5.375 22.9801 4.24432 22.5312C3.11932 22.0824 2.24432 21.392 1.61932 20.4602C1 19.5227 0.6875 18.3239 0.681818 16.8636H5.18182C5.21023 17.3977 5.34375 17.8466 5.58239 18.2102C5.82102 18.5739 6.15625 18.8494 6.58807 19.0369C7.02557 19.2244 7.54545 19.3182 8.14773 19.3182C8.65341 19.3182 9.0767 19.2557 9.41761 19.1307C9.75852 19.0057 10.017 18.8324 10.1932 18.6108C10.3693 18.3892 10.4602 18.1364 10.4659 17.8523C10.4602 17.5852 10.3722 17.3523 10.2017 17.1534C10.0369 16.9489 9.7642 16.767 9.38352 16.608C9.00284 16.4432 8.48864 16.2898 7.84091 16.1477L6.10227 15.7727C4.55682 15.4375 3.33807 14.8778 2.44602 14.0938C1.55966 13.304 1.11932 12.2273 1.125 10.8636C1.11932 9.75568 1.41477 8.78693 2.01136 7.95739C2.61364 7.12216 3.44602 6.47159 4.50852 6.00568C5.5767 5.53977 6.80114 5.30682 8.18182 5.30682C9.59091 5.30682 10.8097 5.54261 11.8381 6.0142C12.8665 6.4858 13.6591 7.15057 14.2159 8.00852C14.7784 8.8608 15.0625 9.85795 15.0682 11H10.5341ZM24.9844 9.90909V13.3182H16.3594V9.90909H24.9844ZM18.0298 6.77273H22.7344V18.7898C22.7344 18.9716 22.7656 19.125 22.8281 19.25C22.8906 19.3693 22.9872 19.4602 23.1179 19.5227C23.2486 19.5795 23.4162 19.608 23.6207 19.608C23.7628 19.608 23.9276 19.5909 24.1151 19.5568C24.3082 19.5227 24.4503 19.4943 24.5412 19.4716L25.223 22.7784C25.0128 22.8409 24.7116 22.9176 24.3196 23.0085C23.9332 23.0994 23.473 23.1591 22.9389 23.1875C21.8594 23.2443 20.9531 23.1335 20.2202 22.8551C19.4872 22.571 18.9361 22.125 18.5668 21.517C18.1974 20.9091 18.0185 20.1477 18.0298 19.233V6.77273ZM35.3928 17.2727V9.90909H40.0973V23H35.6314V20.5114H35.495C35.2109 21.3466 34.7138 22 34.0036 22.4716C33.2933 22.9375 32.4496 23.1705 31.4723 23.1705C30.5575 23.1705 29.7564 22.9602 29.0689 22.5398C28.3871 22.1193 27.8558 21.5398 27.4751 20.8011C27.1001 20.0625 26.9098 19.2159 26.9041 18.2614V9.90909H31.6087V17.2727C31.6143 17.9205 31.7791 18.429 32.103 18.7983C32.4325 19.1676 32.8928 19.3523 33.4837 19.3523C33.8757 19.3523 34.2138 19.2699 34.4979 19.1051C34.7876 18.9347 35.0092 18.696 35.1626 18.3892C35.3217 18.0767 35.3984 17.7045 35.3928 17.2727ZM47.2287 23.1705C46.2969 23.1705 45.4389 22.9261 44.6548 22.4375C43.8764 21.9489 43.2514 21.2074 42.7798 20.2131C42.3139 19.2187 42.081 17.9659 42.081 16.4545C42.081 14.875 42.3253 13.5909 42.8139 12.6023C43.3082 11.6136 43.9446 10.8892 44.723 10.429C45.5071 9.96875 46.331 9.73864 47.1946 9.73864C47.8423 9.73864 48.4105 9.85227 48.8991 10.0795C49.3878 10.3011 49.7969 10.5994 50.1264 10.9744C50.456 11.3437 50.706 11.75 50.8764 12.1932H50.9446V5.54545H55.6491V23H50.9787V20.8523H50.8764C50.6946 21.2955 50.4332 21.6932 50.0923 22.0455C49.7571 22.392 49.348 22.6676 48.8651 22.8722C48.3878 23.071 47.8423 23.1705 47.2287 23.1705ZM48.9673 19.5568C49.3991 19.5568 49.7685 19.4318 50.0753 19.1818C50.3878 18.9261 50.6264 18.5682 50.7912 18.108C50.9616 17.642 51.0469 17.0909 51.0469 16.4545C51.0469 15.8068 50.9616 15.2528 50.7912 14.7926C50.6264 14.3267 50.3878 13.9716 50.0753 13.7273C49.7685 13.4773 49.3991 13.3523 48.9673 13.3523C48.5355 13.3523 48.1662 13.4773 47.8594 13.7273C47.5582 13.9716 47.3253 14.3267 47.1605 14.7926C47.0014 15.2528 46.9219 15.8068 46.9219 16.4545C46.9219 17.1023 47.0014 17.6591 47.1605 18.125C47.3253 18.5852 47.5582 18.9403 47.8594 19.1903C48.1662 19.4347 48.5355 19.5568 48.9673 19.5568ZM60.8224 27.9091C60.2827 27.9091 59.7685 27.8665 59.2798 27.7812C58.7912 27.7017 58.3622 27.5909 57.9929 27.4489L59.0156 24.108C59.402 24.2443 59.7543 24.3324 60.0724 24.3722C60.3963 24.4119 60.6719 24.3892 60.8991 24.304C61.1321 24.2188 61.2997 24.0568 61.402 23.8182L61.5043 23.5795L56.902 9.90909H61.8111L63.9247 18.9773H64.0611L66.2088 9.90909H71.152L66.3793 24.0909C66.1406 24.8125 65.794 25.4602 65.3395 26.0341C64.8906 26.6136 64.2997 27.071 63.5668 27.4062C62.8338 27.7415 61.919 27.9091 60.8224 27.9091Z" fill="#E67A4D"/>
<path d="M87.5241 5.54545V23H83.5696L77.2628 13.8295H77.1605V23H72.4219V5.54545H76.4446L82.6491 14.6818H82.7855V5.54545H87.5241ZM96.1406 23.2386C94.7202 23.2386 93.5043 22.9574 92.4929 22.3949C91.4815 21.8267 90.706 21.0369 90.1662 20.0256C89.6264 19.0085 89.3565 17.8295 89.3565 16.4886C89.3565 15.1477 89.6264 13.9716 90.1662 12.9602C90.706 11.9432 91.4815 11.1534 92.4929 10.5909C93.5043 10.0227 94.7202 9.73864 96.1406 9.73864C97.5611 9.73864 98.777 10.0227 99.7884 10.5909C100.8 11.1534 101.575 11.9432 102.115 12.9602C102.655 13.9716 102.925 15.1477 102.925 16.4886C102.925 17.8295 102.655 19.0085 102.115 20.0256C101.575 21.0369 100.8 21.8267 99.7884 22.3949C98.777 22.9574 97.5611 23.2386 96.1406 23.2386ZM96.1747 19.7614C96.5724 19.7614 96.9162 19.6278 97.206 19.3608C97.4957 19.0937 97.7202 18.7131 97.8793 18.2188C98.0384 17.7244 98.1179 17.1364 98.1179 16.4545C98.1179 15.767 98.0384 15.179 97.8793 14.6903C97.7202 14.196 97.4957 13.8153 97.206 13.5483C96.9162 13.2812 96.5724 13.1477 96.1747 13.1477C95.7543 13.1477 95.3935 13.2812 95.0923 13.5483C94.7912 13.8153 94.5611 14.196 94.402 14.6903C94.2429 15.179 94.1634 15.767 94.1634 16.4545C94.1634 17.1364 94.2429 17.7244 94.402 18.2188C94.5611 18.7131 94.7912 19.0937 95.0923 19.3608C95.3935 19.6278 95.7543 19.7614 96.1747 19.7614ZM106.918 23L103.645 9.90909H108.349L109.849 17.8864H109.952L111.622 9.90909H116.19L117.929 17.8182H118.031L119.463 9.90909H124.168L120.895 23H115.815L113.974 15.9773H113.838L111.997 23H106.918Z" fill="#312D35"/>
</svg>
