<svg width="125" height="23" viewBox="0 0 125 23" fill="none" xmlns="http://www.w3.org/2000/svg">
  <path d="M10.5341 6C10.4886 5.43182 10.2756 4.98864 9.89489 4.67045C9.51989 4.35227 8.94886 4.19318 8.18182 4.19318C7.69318 4.19318 7.29261 4.25284 6.98011 4.37216C6.6733 4.4858 6.44602 4.64205 6.2983 4.84091C6.15057 5.03977 6.07386 5.26705 6.06818 5.52273C6.05682 5.73295 6.09375 5.9233 6.17898 6.09375C6.26989 6.25852 6.41193 6.40909 6.60511 6.54545C6.7983 6.67614 7.04545 6.79545 7.34659 6.90341C7.64773 7.01136 8.00568 7.10795 8.42045 7.19318L9.85227 7.5C10.8182 7.70455 11.6449 7.97443 12.3324 8.30966C13.0199 8.64489 13.5824 9.03977 14.0199 9.49432C14.4574 9.94318 14.7784 10.4489 14.983 11.0114C15.1932 11.5739 15.3011 12.1875 15.3068 12.8523C15.3011 14 15.0142 14.9716 14.446 15.767C13.8778 16.5625 13.0653 17.1676 12.0085 17.5824C10.9574 17.9972 9.69318 18.2045 8.21591 18.2045C6.69886 18.2045 5.375 17.9801 4.24432 17.5312C3.11932 17.0824 2.24432 16.392 1.61932 15.4602C1 14.5227 0.6875 13.3239 0.681818 11.8636H5.18182C5.21023 12.3977 5.34375 12.8466 5.58239 13.2102C5.82102 13.5739 6.15625 13.8494 6.58807 14.0369C7.02557 14.2244 7.54545 14.3182 8.14773 14.3182C8.65341 14.3182 9.0767 14.2557 9.41761 14.1307C9.75852 14.0057 10.017 13.8324 10.1932 13.6108C10.3693 13.3892 10.4602 13.1364 10.4659 12.8523C10.4602 12.5852 10.3722 12.3523 10.2017 12.1534C10.0369 11.9489 9.7642 11.767 9.38352 11.608C9.00284 11.4432 8.48864 11.2898 7.84091 11.1477L6.10227 10.7727C4.55682 10.4375 3.33807 9.87784 2.44602 9.09375C1.55966 8.30398 1.11932 7.22727 1.125 5.86364C1.11932 4.75568 1.41477 3.78693 2.01136 2.95739C2.61364 2.12216 3.44602 1.47159 4.50852 1.00568C5.5767 0.539772 6.80114 0.306818 8.18182 0.306818C9.59091 0.306818 10.8097 0.542613 11.8381 1.0142C12.8665 1.4858 13.6591 2.15057 14.2159 3.00852C14.7784 3.8608 15.0625 4.85795 15.0682 6H10.5341ZM24.9844 4.90909V8.31818H16.3594V4.90909H24.9844ZM18.0298 1.77273H22.7344V13.7898C22.7344 13.9716 22.7656 14.125 22.8281 14.25C22.8906 14.3693 22.9872 14.4602 23.1179 14.5227C23.2486 14.5795 23.4162 14.608 23.6207 14.608C23.7628 14.608 23.9276 14.5909 24.1151 14.5568C24.3082 14.5227 24.4503 14.4943 24.5412 14.4716L25.223 17.7784C25.0128 17.8409 24.7116 17.9176 24.3196 18.0085C23.9332 18.0994 23.473 18.1591 22.9389 18.1875C21.8594 18.2443 20.9531 18.1335 20.2202 17.8551C19.4872 17.571 18.9361 17.125 18.5668 16.517C18.1974 15.9091 18.0185 15.1477 18.0298 14.233V1.77273ZM35.3928 12.2727V4.90909H40.0973V18H35.6314V15.5114H35.495C35.2109 16.3466 34.7138 17 34.0036 17.4716C33.2933 17.9375 32.4496 18.1705 31.4723 18.1705C30.5575 18.1705 29.7564 17.9602 29.0689 17.5398C28.3871 17.1193 27.8558 16.5398 27.4751 15.8011C27.1001 15.0625 26.9098 14.2159 26.9041 13.2614V4.90909H31.6087V12.2727C31.6143 12.9205 31.7791 13.429 32.103 13.7983C32.4325 14.1676 32.8928 14.3523 33.4837 14.3523C33.8757 14.3523 34.2138 14.2699 34.4979 14.1051C34.7876 13.9347 35.0092 13.696 35.1626 13.3892C35.3217 13.0767 35.3984 12.7045 35.3928 12.2727ZM47.2287 18.1705C46.2969 18.1705 45.4389 17.9261 44.6548 17.4375C43.8764 16.9489 43.2514 16.2074 42.7798 15.2131C42.3139 14.2187 42.081 12.9659 42.081 11.4545C42.081 9.875 42.3253 8.59091 42.8139 7.60227C43.3082 6.61364 43.9446 5.8892 44.723 5.42898C45.5071 4.96875 46.331 4.73864 47.1946 4.73864C47.8423 4.73864 48.4105 4.85227 48.8991 5.07954C49.3878 5.30114 49.7969 5.59943 50.1264 5.97443C50.456 6.34375 50.706 6.75 50.8764 7.19318H50.9446V0.545454H55.6491V18H50.9787V15.8523H50.8764C50.6946 16.2955 50.4332 16.6932 50.0923 17.0455C49.7571 17.392 49.348 17.6676 48.8651 17.8722C48.3878 18.071 47.8423 18.1705 47.2287 18.1705ZM48.9673 14.5568C49.3991 14.5568 49.7685 14.4318 50.0753 14.1818C50.3878 13.9261 50.6264 13.5682 50.7912 13.108C50.9616 12.642 51.0469 12.0909 51.0469 11.4545C51.0469 10.8068 50.9616 10.2528 50.7912 9.79261C50.6264 9.3267 50.3878 8.97159 50.0753 8.72727C49.7685 8.47727 49.3991 8.35227 48.9673 8.35227C48.5355 8.35227 48.1662 8.47727 47.8594 8.72727C47.5582 8.97159 47.3253 9.3267 47.1605 9.79261C47.0014 10.2528 46.9219 10.8068 46.9219 11.4545C46.9219 12.1023 47.0014 12.6591 47.1605 13.125C47.3253 13.5852 47.5582 13.9403 47.8594 14.1903C48.1662 14.4347 48.5355 14.5568 48.9673 14.5568ZM60.8224 22.9091C60.2827 22.9091 59.7685 22.8665 59.2798 22.7812C58.7912 22.7017 58.3622 22.5909 57.9929 22.4489L59.0156 19.108C59.402 19.2443 59.7543 19.3324 60.0724 19.3722C60.3963 19.4119 60.6719 19.3892 60.8991 19.304C61.1321 19.2188 61.2997 19.0568 61.402 18.8182L61.5043 18.5795L56.902 4.90909H61.8111L63.9247 13.9773H64.0611L66.2088 4.90909H71.152L66.3793 19.0909C66.1406 19.8125 65.794 20.4602 65.3395 21.0341C64.8906 21.6136 64.2997 22.071 63.5668 22.4062C62.8338 22.7415 61.919 22.9091 60.8224 22.9091Z" fill="#E67A4D"/>
  <path d="M87.5241 0.545454V18H83.5696L77.2628 8.82955H77.1605V18H72.4219V0.545454H76.4446L82.6491 9.68182H82.7855V0.545454H87.5241ZM96.1406 18.2386C94.7202 18.2386 93.5043 17.9574 92.4929 17.3949C91.4815 16.8267 90.706 16.0369 90.1662 15.0256C89.6264 14.0085 89.3565 12.8295 89.3565 11.4886C89.3565 10.1477 89.6264 8.97159 90.1662 7.96023C90.706 6.94318 91.4815 6.15341 92.4929 5.59091C93.5043 5.02273 94.7202 4.73864 96.1406 4.73864C97.5611 4.73864 98.777 5.02273 99.7884 5.59091C100.8 6.15341 101.575 6.94318 102.115 7.96023C102.655 8.97159 102.925 10.1477 102.925 11.4886C102.925 12.8295 102.655 14.0085 102.115 15.0256C101.575 16.0369 100.8 16.8267 99.7884 17.3949C98.777 17.9574 97.5611 18.2386 96.1406 18.2386ZM96.1747 14.7614C96.5724 14.7614 96.9162 14.6278 97.206 14.3608C97.4957 14.0937 97.7202 13.7131 97.8793 13.2188C98.0384 12.7244 98.1179 12.1364 98.1179 11.4545C98.1179 10.767 98.0384 10.179 97.8793 9.69034C97.7202 9.19602 97.4957 8.81534 97.206 8.5483C96.9162 8.28125 96.5724 8.14773 96.1747 8.14773C95.7543 8.14773 95.3935 8.28125 95.0923 8.5483C94.7912 8.81534 94.5611 9.19602 94.402 9.69034C94.2429 10.179 94.1634 10.767 94.1634 11.4545C94.1634 12.1364 94.2429 12.7244 94.402 13.2188C94.5611 13.7131 94.7912 14.0937 95.0923 14.3608C95.3935 14.6278 95.7543 14.7614 96.1747 14.7614ZM106.918 18L103.645 4.90909H108.349L109.849 12.8864H109.952L111.622 4.90909H116.19L117.929 12.8182H118.031L119.463 4.90909H124.168L120.895 18H115.815L113.974 10.9773H113.838L111.997 18H106.918Z" fill="#F7F3F2"/>
</svg>
